<?xml version="1.0" encoding="UTF-8" standalone="no"?>
<!-- Created with Inkscape (http://www.inkscape.org/) -->

<svg
   xmlns:dc="http://purl.org/dc/elements/1.1/"
   xmlns:cc="http://creativecommons.org/ns#"
   xmlns:rdf="http://www.w3.org/1999/02/22-rdf-syntax-ns#"
   xmlns:svg="http://www.w3.org/2000/svg"
   xmlns="http://www.w3.org/2000/svg"
   xmlns:sodipodi="http://sodipodi.sourceforge.net/DTD/sodipodi-0.dtd"
   xmlns:inkscape="http://www.inkscape.org/namespaces/inkscape"
   width="178.52451mm"
   height="223.88481mm"
   viewBox="0 0 178.52451 223.88481"
   version="1.1"
   id="svg8"
   sodipodi:docname="toporadio-7.svg"
   inkscape:version="0.92.4 (5da689c313, 2019-01-14)">
  <defs
     id="defs2" />
  <sodipodi:namedview
     id="base"
     pagecolor="#ffffff"
     bordercolor="#666666"
     borderopacity="1.0"
     inkscape:pageopacity="0.0"
     inkscape:pageshadow="2"
     inkscape:zoom="0.27020594"
     inkscape:cx="522.4147"
     inkscape:cy="442.75194"
     inkscape:document-units="mm"
     inkscape:current-layer="layer1"
     showgrid="false"
     inkscape:window-width="1120"
     inkscape:window-height="708"
     inkscape:window-x="144"
     inkscape:window-y="56"
     inkscape:window-maximized="0"
     fit-margin-top="0"
     fit-margin-left="0"
     fit-margin-right="0"
     fit-margin-bottom="0" />
  <metadata
     id="metadata5">
    <rdf:RDF>
      <cc:Work
         rdf:about="">
        <dc:format>image/svg+xml</dc:format>
        <dc:type
           rdf:resource="http://purl.org/dc/dcmitype/StillImage" />
        <dc:title></dc:title>
      </cc:Work>
    </rdf:RDF>
  </metadata>
  <g
     inkscape:label="Layer 1"
     inkscape:groupmode="layer"
     id="layer1"
     transform="translate(-4.5914146,-68.456473)">
    <path
       style="fill:#0b0b0b;stroke-width:0.35277778"
       d="m 101.72967,291.07806 c -1.05452,-1.05453 -1.19944,-1.41966 -1.19944,-3.02205 0,-1.77404 -0.0255,-1.81962 -0.956021,-1.71097 -0.82307,0.0961 -1.03157,0.37346 -1.49931,1.99448 -0.69518,2.40929 -1.98795,3.5852 -3.94148,3.5852 -1.09753,0 -1.65196,-0.23337 -2.44977,-1.03119 -1.2143,-1.2143 -1.32205,-2.50705 -0.47985,-5.75722 0.73218,-2.82557 0.3601,-3.16863 -1.87859,-1.73207 -0.94665,0.60746 -2.20392,1.20102 -2.79394,1.31903 -2.29751,0.4595 -4.63487,-1.90513 -4.19593,-4.24489 0.21946,-1.16982 1.25047,-2.30774 3.37822,-3.72849 0.6791,-0.45345 1.3095,-0.8845 1.40089,-0.95788 0.81708,-0.65605 -3.75181,-0.78981 -26.97728,-0.78981 -23.09832,0 -27.8528,0.13711 -26.97729,0.77803 2.3455,1.71701 2.81261,2.20101 3.17035,3.28496 0.50202,1.52115 0.019,2.98649 -1.33561,4.05204 -1.28626,1.01177 -2.72179,0.85583 -5.27727,-0.57328 -1.24597,-0.69678 -2.36617,-1.16611 -2.48933,-1.04295 -0.12316,0.12316 0.0489,1.28857 0.38238,2.5898 0.84176,3.28464 0.77726,3.84705 -0.59907,5.22337 -0.96074,0.96074 -1.47782,1.19944 -2.59825,1.19944 -2.03135,0 -3.10615,-1.00051 -3.8243,-3.56 -0.50668,-1.8058 -0.70487,-2.10431 -1.33712,-2.01404 -0.57018,0.0814 -0.76435,0.39225 -0.8375,1.34071 -0.16401,2.12647 -0.43388,2.85586 -1.38166,3.73423 -1.35698,1.25761 -3.70329,1.19403 -5.03372,-0.1364 -0.8668,-0.8668 -1.02018,-1.35462 -1.24783,-3.96875 l -0.25955,-2.98047 -2.1257097,-2.11667 c -1.21858,-1.21339 -2.50083,-2.92615 -3.00474,-4.01356 -0.79159,-1.7082 -0.86102,-2.21294 -0.69789,-5.07394 0.15973,-2.80138 0.34249,-3.49296 1.54568,-5.84891 3.03597,-5.94467 9.6490097,-8.60833 15.9091997,-6.40805 1.10189,0.38728 2.12421,0.58338 2.27182,0.43576 0.14761,-0.14761 0.31495,-12.64854 0.37187,-27.77984 l 0.10348,-27.51146 0.96965,-3.10032 c 1.79404,-5.73618 4.16261,-9.7813 8.17395,-13.9597 7.13011,-7.42707 16.59325,-10.97056 26.4511,-9.90469 11.35502,1.22775 21.06486,7.8932 26.12142,17.93138 2.42651,4.81706 3.8022,5.67819 9.08697,5.68807 4.426531,0.008 7.601501,0.73446 11.388421,2.60474 7.09159,3.50239 11.7794,9.94732 12.85376,17.67169 0.21239,1.52699 0.45208,2.84227 0.53266,2.92285 0.0806,0.0806 2.10222,-0.20063 4.49254,-0.6249 5.99291,-1.0637 7.53016,-0.70715 8.40708,1.94995 0.53693,1.6269 -0.27642,3.50014 -1.83668,4.23012 -0.64131,0.30005 -3.70603,0.98445 -6.81047,1.52089 l -5.64445,0.97536 -1.32291,2.41676 c -0.72761,1.32922 -1.32292,2.59503 -1.32292,2.81292 0,0.21789 2.34156,1.49206 5.20347,2.83149 5.70947,2.67215 7.02825,3.6284 7.34697,5.32733 0.42545,2.26783 -1.89957,4.70416 -4.07418,4.26923 -0.52307,-0.10461 -3.85065,-1.54881 -7.39463,-3.20932 -3.54398,-1.66052 -6.60866,-3.01912 -6.81041,-3.01912 -0.20173,0 -1.09873,0.44988 -1.99331,0.99973 -2.73861,1.68329 -6.2521,2.8968 -9.492991,3.27874 -5.14405,0.60624 -5.33626,0.65875 -6.65752,1.81883 -1.97995,1.73842 -2.23296,2.71844 -2.23296,8.64923 0,2.88432 0.10298,5.34719 0.22884,5.47305 0.12587,0.12587 0.8605,-0.34181 1.63252,-1.03929 2.08574,-1.88433 4.21291,-2.70045 7.48726,-2.87256 4.429731,-0.23285 7.912551,1.3895 10.662461,4.96675 1.91036,2.48511 2.67565,5.37278 2.49029,9.3966 -0.18325,3.97814 -0.7855,5.53245 -3.27263,8.44619 -1.5711,1.8406 -1.58985,1.8931 -1.58985,4.45245 0,2.42167 -0.0705,2.66039 -1.08547,3.67536 -1.57161,1.57162 -3.48029,1.52916 -5.12342,-0.11397 z M 70.193959,248.33008 c 3.58807,-1.46983 6.8601,-2.80735 7.27119,-2.97226 1.24426,-0.49917 2.25119,-2.08613 2.25119,-3.54798 0,-1.8166 -1.63564,-3.50734 -3.39303,-3.50734 -1.53951,0 -14.82502,5.40911 -15.9325,6.48681 -2.19956,2.14042 -0.55836,6.09201 2.57121,6.19083 0.3895,0.0123 3.64388,-1.18023 7.23194,-2.65006 z m 7.00177,-15.1164 c 1.99738,-1.03288 2.39924,-3.77123 0.81383,-5.5456 -0.97336,-1.08939 -1.19664,-1.15281 -8.02569,-2.27961 -3.86346,-0.63747 -7.67776,-1.1676 -8.47621,-1.17806 -2.77913,-0.0364 -4.57536,2.54624 -3.52286,5.06522 0.29051,0.6953 0.90248,1.43471 1.35992,1.64314 0.85015,0.38735 14.10435,2.68826 15.89122,2.75869 0.54321,0.0214 1.42511,-0.18729 1.95979,-0.46378 z m 28.494501,-1.63561 c 6.52563,-3.159 8.18191,-11.68661 3.30602,-17.02161 -2.29822,-2.51462 -4.59538,-3.54357 -7.93685,-3.55511 -4.375271,-0.0151 -7.833331,2.11005 -9.741891,5.98689 -3.71964,7.55565 1.91304,16.04356 10.321351,15.5533 1.50272,-0.0876 2.95608,-0.43324 4.05137,-0.96347 z m -56.412771,-9.26916 c 2.32073,-1.185 4.06322,-2.91854 5.30024,-5.27306 0.84552,-1.60935 0.96705,-2.23873 0.96833,-5.01529 0.002,-3.87208 -0.72033,-5.69784 -3.25677,-8.23429 -2.42793,-2.42792 -4.98077,-3.34869 -8.73265,-3.14971 -6.10453,0.32376 -10.33967,4.5021 -10.68955,10.54621 -0.31862,5.50396 2.53945,9.86408 7.69284,11.73577 2.39432,0.86961 6.36426,0.59198 8.71756,-0.60963 z m -7.03933,-6.78364 c -1.21864,-0.66123 -2.03291,-2.21343 -2.03291,-3.87525 0,-1.81934 1.86707,-3.68641 3.68641,-3.68641 1.7007,0 3.23202,0.8282 3.89234,2.10512 1.88179,3.63898 -1.94905,7.40813 -5.54584,5.45654 z m 33.83205,-2.27709 c 7.70821,-3.7775 8.57714,-14.48312 1.58854,-19.57168 -5.868,-4.27263 -14.12696,-2.03388 -17.39072,4.71409 -1.18954,2.45943 -1.15476,6.60393 0.0774,9.22025 1.18691,2.52029 2.48349,4.02371 4.47837,5.19279 3.66482,2.14773 7.46454,2.29792 11.24645,0.44455 z m -6.55136,-6.44344 c -3.66228,-1.3063 -3.52797,-6.30965 0.20481,-7.62947 1.27826,-0.45196 1.53654,-0.43564 2.79026,0.17639 0.92316,0.45065 1.60541,1.13291 2.05607,2.05607 0.61202,1.25371 0.62835,1.512 0.17639,2.79026 -0.82689,2.33864 -2.97547,3.41004 -5.22753,2.60675 z m 46.957001,66.15818 0.1058,-2.02847 25.31181,-0.0905 c 19.89501,-0.0712 25.31142,-0.1844 25.31003,-0.52917 -0.001,-0.24125 -0.59732,-1.22493 -1.3252,-2.18596 -1.10821,-1.46317 -3.26957,-2.99388 -13.29106,-9.41294 -11.5102,-7.37261 -12.0027,-7.64748 -12.88488,-7.1913 -0.50448,0.26088 -5.88252,3.66326 -11.9512,7.56086 -6.06869,3.89759 -11.2314,7.08654 -11.4727,7.08654 -0.36455,0 -2.16092,-3.51815 -1.89779,-3.71677 0.0464,-0.035 3.24195,-2.07056 7.10128,-4.52344 4.2059,-2.67316 7.37288,-4.45979 7.90541,-4.45979 0.59111,0 1.37146,-0.5122 2.33166,-1.53045 0.79376,-0.84175 2.03851,-1.88657 2.76611,-2.32183 0.72761,-0.43526 1.32292,-0.99283 1.32292,-1.23904 0,-0.24622 -0.79375,-0.94109 -1.76389,-1.54416 -1.75814,-1.09292 -1.76389,-1.10261 -1.76389,-2.97285 0,-1.15 -0.21877,-2.18869 -0.56515,-2.68321 -0.31083,-0.44378 -0.49518,-0.87684 -0.40966,-0.96236 0.0855,-0.0855 1.57015,0.74255 3.29918,1.84015 1.72903,1.0976 3.7788,2.35992 4.55505,2.80514 l 1.41136,0.80951 3.88031,-2.46001 c 2.13416,-1.35301 3.92749,-2.67235 3.98517,-2.93188 0.0577,-0.25953 -1.31975,-3.15241 -3.06096,-6.42863 l -3.16582,-5.95677 -2.57755,-1.76389 c -2.25995,-1.54656 -2.604,-1.92675 -2.79235,-3.08565 -0.45975,-2.829 -2.25473,-3.58561 -8.03699,-3.38769 -2.16201,0.074 -3.93092,0.0143 -3.93092,-0.13265 0,-0.14696 0.3175,-0.46548 0.70555,-0.70782 1.07302,-0.67012 0.86553,-1.15304 -1.01345,-2.35878 -1.34205,-0.86119 -1.85615,-1.46879 -2.34441,-2.7708 -0.34398,-0.91725 -1.01318,-2.44414 -1.48712,-3.3931 -1.09419,-2.19089 -1.02475,-2.16685 5.04408,1.74647 2.53967,1.63763 4.89429,2.97752 5.23249,2.97752 0.67031,0 3.74064,-1.98467 3.74064,-2.41797 0,-0.14707 -0.84768,-2.24288 -1.88373,-4.65736 -1.03605,-2.41447 -2.33787,-5.55808 -2.89295,-6.9858 -0.55507,-1.42772 -1.20445,-2.67076 -1.44305,-2.76233 -0.23861,-0.0916 -2.80118,1.35439 -5.69459,3.21322 -2.89342,1.85882 -5.46783,3.37968 -5.72092,3.37968 -0.25308,0 -1.1115,-0.53092 -1.9076,-1.17983 -0.79609,-0.64891 -2.16182,-1.61865 -3.03494,-2.15496 -0.87313,-0.53632 -1.78594,-1.22635 -2.02848,-1.53342 -0.31735,-0.4018 -0.44097,-2.41832 -0.44097,-7.19366 0,-4.98158 -0.10713,-6.63535 -0.42985,-6.63535 -0.55673,0 -11.211811,7.06904 -11.211811,7.43839 0,0.15427 1.19062,1.10358 2.645831,2.10956 1.45521,1.00598 2.64583,1.96427 2.64583,2.12952 0,0.28051 -7.046621,0.0961 -8.673931,-0.22703 -0.40504,-0.0804 -1.15271,-0.47367 -1.6615,-0.87388 l -0.92507,-0.72766 1.07726,-2.89598 c 7.177101,-19.29401 11.880051,-36.81963 14.785801,-55.09949 l 0.78387,-4.93128 -1.01752,-0.71233 c -2.37261,-1.66096 -4.32563,-4.01169 -4.87782,-5.87111 -0.69231,-2.33126 -0.6916,-3.58465 0.004,-5.92485 1.11586,-3.7575 5.0806,-6.72299 8.99757,-6.72985 5.57177,-0.01 9.85226,4.05312 9.85226,9.35158 0,3.78811 -1.48153,6.54732 -4.74583,8.83865 l -1.04166,0.73117 0.6439,4.3841 c 1.58074,10.76271 5.31745,26.8114 9.00985,38.69607 9.27053,29.83895 23.54554,59.14252 43.30019,88.88613 l 4.03539,6.07589 5.00255,0.0977 5.00256,0.0977 0.10579,2.02847 0.10581,2.02847 h -33.37319 -33.37271 z m 41.90997,-16.20183 c 0,-0.66431 -7.17873,-12.10859 -7.59543,-12.10859 -0.6804,0 -5.80779,3.27411 -5.80088,3.70417 0.005,0.33831 12.58733,8.60871 13.13173,8.63182 0.14552,0.006 0.26458,-0.0961 0.26458,-0.2274 z M 137.5719,218.79076 c 0,-0.85853 -0.87337,-1.70376 -1.50861,-1.45999 -0.81679,0.31343 -0.76555,0.71308 0.17599,1.37256 0.95708,0.67036 1.33262,0.695 1.33262,0.0874 z m -16.9048,-21.1459 c 3.3439,-2.14872 5.58919,-3.81254 5.53341,-4.1004 -0.10497,-0.54159 -10.72172,-7.45307 -11.4487,-7.45307 -0.36811,0 -0.46325,1.55765 -0.46325,7.58472 0,5.12882 0.12163,7.58473 0.37563,7.58473 0.20659,0 2.9079,-1.62719 6.00291,-3.61598 z m 3.49924,-11.66368 c 0,-0.25465 -0.48486,-1.88183 -1.07746,-3.61597 -1.78363,-5.21942 -5.4728,-18.30681 -6.8554,-24.31965 -0.71384,-3.10445 -1.44347,-5.79526 -1.6214,-5.97958 -0.19636,-0.20342 -0.32352,5.28823 -0.32352,13.9717 v 14.30684 l 4.67431,3.02355 c 2.57087,1.66296 4.79337,3.03538 4.93889,3.04983 0.14552,0.0145 0.26458,-0.18208 0.26458,-0.43672 z m -18.79724,-2.7982 4.30971,-2.91242 0.0118,-12.85875 c 0.006,-7.07231 -0.12163,-12.70794 -0.28474,-12.52361 -0.16311,0.18432 -1.05772,3.43076 -1.98802,7.2143 -0.93031,3.78355 -2.79922,10.45104 -4.15315,14.81667 -3.0753,9.91607 -2.8716,9.17186 -2.51105,9.17423 0.16815,0.001 2.24509,-1.30858 4.61543,-2.91042 z m 9.62502,-55.25397 c 3.30284,-2.39672 3.25068,-6.51624 -0.11406,-9.00935 -0.70922,-0.52549 -1.52185,-0.73799 -2.82223,-0.73799 -5.64006,0 -7.37812,7.39407 -2.34731,9.98594 1.80823,0.93161 3.79459,0.8419 5.2836,-0.2386 z m -3.43958,131.85437 -1.85209,-1.79375 v -3.99753 c 0,-3.16375 0.11563,-4.11316 0.55437,-4.5519 0.70522,-0.70522 0.75539,-0.69997 2.44424,0.25595 l 1.41112,0.79871 0.0971,5.54549 c 0.0755,4.31262 -0.003,5.54452 -0.35278,5.54114 -0.24746,-0.002 -1.28337,-0.81154 -2.30201,-1.79811 z m -17.580721,-3.26384 c -0.24879,-0.64832 1.12043,-3.04759 1.73919,-3.04759 0.59628,0 4.11166,2.42095 4.11166,2.83159 0,0.18888 -0.91281,0.34557 -2.02847,0.34822 -1.11566,0.003 -2.38373,0.10004 -2.81794,0.21642 -0.53757,0.14408 -0.85806,0.0328 -1.00444,-0.34864 z m 34.425861,-17.73459 c -1.38087,-0.43683 -5.29167,-2.41626 -5.29167,-2.67834 0,-0.7905 1.25935,-0.59072 3.02826,0.48039 1.61595,0.9785 3.48185,2.49972 2.93544,2.39321 -0.0786,-0.0153 -0.38099,-0.10318 -0.67203,-0.19526 z m -48.195901,-70.0863 c -11.48191,-8.15409 -19.38084,-20.29218 -22.36867,-34.37341 -1.05199,-4.95792 -1.28388,-12.47461 -0.56521,-18.32155 0.59757,-4.86164 1.0053,-6.46507 1.64399,-6.46507 0.20992,0 1.08698,0.17759 1.94901,0.39465 1.83267,0.46148 1.84813,0.53552 0.98547,4.72062 -0.91361,4.43235 -0.8165,13.77687 0.19247,18.52084 1.99412,9.37592 5.92366,17.28687 12.13269,24.42555 2.09299,2.40635 6.57374,6.27197 9.51156,8.20578 1.11566,0.73437 2.02847,1.47974 2.02847,1.65636 0,0.54836 -1.56451,3.08569 -2.00927,3.25863 -0.23197,0.0902 -1.8072,-0.81987 -3.50051,-2.0224 z m 64.072151,-3.06679 -1.11637,-1.40953 4.17733,-4.14672 c 2.29754,-2.2807 5.18427,-5.57547 6.41498,-7.32172 2.51813,-3.57299 5.56468,-9.63851 6.79917,-13.53678 0.45296,-1.43038 1.00757,-2.67129 1.23246,-2.75759 0.68378,-0.26238 3.32813,0.59816 3.54076,1.15226 0.57391,1.4956 -4.02554,11.74725 -7.71192,17.18899 -2.34039,3.45482 -10.71944,12.24062 -11.67393,12.24062 -0.30036,0 -1.04848,-0.63429 -1.66248,-1.40953 z M 87.548349,155.22045 c -2.66004,-1.99958 -6.62292,-6.17351 -8.53585,-8.99041 -1.66654,-2.45409 -4.68754,-8.61922 -5.24356,-10.70085 -0.35408,-1.32558 -0.33903,-1.3587 0.84183,-1.85209 2.39464,-1.00055 2.79173,-0.78386 3.84231,2.09666 2.07713,5.69512 6.09517,11.35071 10.87645,15.30912 1.50372,1.24492 2.73403,2.41022 2.73403,2.58956 0,0.5083 -1.53794,2.75067 -2.01508,2.93805 -0.23517,0.0924 -1.36023,-0.53316 -2.50013,-1.39004 z m 50.092751,-3.45349 c -0.62014,-0.63983 -1.12753,-1.36955 -1.12753,-1.62161 0,-0.25205 0.91281,-1.45564 2.02847,-2.67463 1.11566,-1.219 2.74284,-3.34271 3.61597,-4.71937 0.87313,-1.37666 1.74625,-2.50446 1.94028,-2.50624 0.56572,-0.005 3.10766,1.53465 3.25025,1.96888 0.31466,0.9583 -7.19215,10.71629 -8.24404,10.71629 -0.18472,0 -0.84325,-0.52349 -1.4634,-1.16332 z M 93.656639,140.15769 c -6.67528,-7.20992 -8.37076,-18.03214 -4.2305,-27.0031 1.30229,-2.82175 1.65698,-3.0031 3.56592,-1.82331 1.41225,0.87282 1.4338,1.08457 0.3606,3.5433 -3.54932,8.13154 -1.99757,16.59933 4.2697,23.29955 1.72286,1.84188 1.72387,1.70755 -0.0294,3.90823 -0.82869,1.04012 -1.4913,0.71614 -3.93628,-1.92467 z m 35.517801,-1.79629 c -0.62015,-0.63982 -1.12754,-1.29808 -1.12754,-1.46279 0,-0.16471 0.5797,-1.17282 1.28822,-2.24026 3.89535,-5.86859 4.32269,-13.85098 1.09807,-20.51083 -1.57163,-3.24588 -5.93487,-7.56922 -9.2323,-9.14788 -6.35638,-3.04313 -14.04306,-2.72612 -19.61233,0.80884 -3.609291,2.29092 -3.403101,2.25556 -4.830251,0.8284 -0.81744,-0.81743 -1.19073,-1.46639 -1.05178,-1.82849 0.37393,-0.97445 5.221291,-3.83542 8.345791,-4.925788 3.85855,-1.346529 9.70861,-1.678603 13.58763,-0.771292 7.18898,1.68152 13.48876,6.7275 16.91427,13.54794 3.13895,6.24988 3.09644,15.50636 -0.10012,21.80083 -1.34465,2.64782 -3.10759,5.06465 -3.69438,5.06465 -0.25176,0 -0.96514,-0.5235 -1.58528,-1.16333 z m 18.45163,-2.79798 c -0.58209,-0.2078 -1.14864,-0.51529 -1.259,-0.68329 -0.11037,-0.16801 0.10497,-1.4539 0.47853,-2.85752 1.05555,-3.96616 1.20905,-11.19154 0.32778,-15.42844 -1.50665,-7.24356 -4.59168,-13.00149 -9.75931,-18.214898 -6.57375,-6.631974 -14.25084,-10.096209 -23.50483,-10.606392 -15.314711,-0.844317 -29.688691,8.468889 -35.226611,22.82407 -1.11109,2.88011 -1.93952,6.5796 -2.31444,10.33546 l -0.23937,2.39797 -1.9986,-0.10491 c -1.987,-0.1043 -1.99927,-0.11181 -2.11218,-1.29207 -0.17244,-1.80237 0.8906,-7.90005 1.90584,-10.93207 2.13591,-6.37893 5.16774,-11.169856 10.19041,-16.102988 5.35856,-5.263043 10.82406,-8.37463 18.411361,-10.481847 2.39487,-0.665128 3.66869,-0.768678 9.46986,-0.769816 6.14873,-0.0012 6.98789,0.07592 10.15201,0.932997 15.12598,4.097248 26.53433,16.374244 29.39822,31.636644 1.01284,5.39773 0.69785,12.72294 -0.77097,17.92855 -0.56927,2.01755 -0.96785,2.19712 -3.1487,1.41855 z m 15.54082,-12.70744 c -0.0746,-0.24254 -0.22855,-1.86973 -0.3421,-3.61598 -1.25695,-19.33025 -15.08306,-37.263102 -33.82948,-43.877803 -5.84274,-2.061617 -9.55248,-2.649466 -16.82341,-2.665853 -7.18501,-0.01619 -10.19755,0.414747 -15.879621,2.271562 -9.62326,3.144736 -18.86514,9.738301 -24.84507,17.725575 -1.1258,1.503715 -2.26803,2.734028 -2.53829,2.734028 -0.76421,0 -2.94167,-1.531083 -2.94655,-2.071867 -0.007,-0.773802 2.91352,-4.651837 5.87006,-7.794647 7.80566,-8.297474 17.45341,-13.735301 28.986101,-16.337652 2.96657,-0.669403 4.45992,-0.770262 11.35337,-0.766785 7.34324,0.0037 8.22802,0.07343 11.81805,0.931391 21.74729,5.19724 37.8886,21.624963 42.304,43.054641 0.62289,3.02315 1.26969,9.72366 1.00516,10.413 -0.23062,0.60099 -3.94737,0.60134 -4.13222,3.5e-4 z"
       id="path3754"
       inkscape:connector-curvature="0" />
  </g>
</svg>
