<?xml version="1.0" standalone="no"?>
<!DOCTYPE svg PUBLIC "-//W3C//DTD SVG 20010904//EN"
 "http://www.w3.org/TR/2001/REC-SVG-20010904/DTD/svg10.dtd">
<svg version="1.0" xmlns="http://www.w3.org/2000/svg"
 width="200.000000pt" height="200.000000pt" viewBox="0 0 200.000000 200.000000"
 preserveAspectRatio="xMidYMid meet">
<metadata>
Created by potrace 1.14, written by Peter Selinger 2001-2017
</metadata>
<g transform="translate(0.000000,200.000000) scale(0.100000,-0.100000)"
fill="#000000" stroke="none">
<path d="M508 1995 c-2 -2 -21 -5 -43 -8 -47 -6 -145 -35 -161 -48 -6 -5 -14
-6 -17 -2 -4 3 -7 1 -7 -5 0 -7 -9 -12 -19 -12 -11 0 -21 -4 -23 -9 -1 -5 -10
-11 -18 -13 -8 -2 -25 -13 -37 -25 -12 -13 -26 -23 -30 -23 -7 0 -108 -104
-140 -144 -10 -12 -13 -199 -13 -861 l0 -845 873 2 872 3 -2 23 c-5 40 -40
106 -78 143 -97 97 -261 100 -361 7 l-32 -30 -4 42 c-2 23 -1 43 2 45 4 2 3
29 0 60 -3 31 -2 58 2 61 5 3 5 10 2 16 -10 16 26 84 54 100 15 9 54 19 87 22
115 13 184 35 247 78 34 24 36 24 120 -16 40 -18 103 -48 140 -65 37 -17 70
-31 73 -31 3 0 5 38 5 83 l0 84 -97 47 c-53 26 -92 50 -86 54 10 7 47 71 48
84 0 11 15 22 35 25 11 2 30 5 43 7 12 3 30 5 40 5 15 1 17 12 17 87 0 62 -3
83 -12 78 -6 -4 -31 -9 -56 -11 -38 -3 -43 -2 -34 10 7 8 10 16 7 19 -2 2 -7
22 -10 44 -4 21 -9 48 -13 59 -3 11 -7 22 -7 25 -7 26 -39 90 -46 90 -5 0 -9
6 -9 14 0 15 -116 136 -130 136 -5 0 -15 6 -22 13 -18 18 -139 66 -177 70 -17
2 -33 6 -36 8 -2 3 -35 4 -72 2 -74 -2 -153 25 -153 53 0 9 -5 12 -10 9 -5 -3
-10 0 -10 8 0 19 -49 115 -75 146 -58 71 -93 105 -149 146 -33 25 -68 51 -76
58 -8 6 -15 10 -15 8 0 -2 -18 5 -40 14 -48 22 -46 21 -120 40 -50 13 -219 28
-227 20z m473 -327 c215 -126 132 -449 -116 -454 -33 -1 -64 1 -70 5 -5 3 -15
6 -22 7 -18 3 -75 44 -101 74 -29 33 -55 88 -47 100 3 6 2 10 -3 10 -15 0 -6
98 14 143 22 52 75 104 129 128 59 27 158 21 216 -13z m-550 -199 c42 -29 65
-55 84 -94 19 -41 35 -134 23 -141 -5 -3 -7 -11 -5 -17 11 -32 -63 -135 -118
-165 -39 -21 -49 -23 -116 -27 -91 -5 -179 48 -224 136 -20 38 -29 148 -13
166 6 7 8 13 4 13 -4 0 3 18 14 40 21 42 115 124 131 114 5 -3 9 0 9 6 0 6 4
9 8 6 5 -3 22 -2 38 3 39 10 123 -10 165 -40z m1157 -199 c117 -52 168 -183
119 -303 -20 -48 -88 -117 -124 -125 -46 -10 -134 -14 -150 -7 -10 5 -20 9
-23 10 -36 9 -100 63 -100 85 0 6 -4 10 -8 10 -15 0 -33 70 -33 125 0 41 7 68
27 105 15 27 30 50 34 50 4 0 19 12 34 26 14 15 26 24 26 21 0 -3 14 0 30 7
50 20 115 19 168 -4z m-828 -275 c14 -2 40 -6 58 -10 17 -3 47 -7 65 -10 87
-12 106 -18 126 -36 11 -11 22 -24 22 -29 10 -88 -32 -114 -149 -93 -42 8 -90
16 -107 17 -26 3 -49 6 -132 20 -6 1 -23 11 -37 21 -36 27 -36 79 0 112 27 25
48 26 154 8z m266 -311 c49 -52 25 -103 -65 -141 -36 -15 -68 -27 -71 -26 -3
0 -16 -5 -30 -13 -24 -13 -65 -29 -85 -34 -5 -1 -15 -6 -21 -11 -6 -5 -23 -10
-38 -11 -14 -1 -26 -6 -26 -9 0 -16 -59 24 -66 44 -11 32 -5 69 14 89 20 20
228 109 236 100 3 -3 6 1 6 8 0 7 3 11 6 8 3 -4 17 0 32 8 42 22 82 17 108
-12z"/>
</g>
</svg>
